<svg width="33" height="32" viewBox="0 0 33 32" fill="none" xmlns="http://www.w3.org/2000/svg">
<g clip-path="url(#clip0_1688_11251)">
<path d="M31.6952 6.59669C31.4023 4.76414 29.7155 3.1627 27.8487 2.95025C20.2304 2.12571 12.5444 2.12596 4.9262 2.95099C3.06605 3.1627 1.37927 4.76385 1.08487 6.60335C0.15886 12.612 0.159212 18.7256 1.08591 24.7342C1.37912 26.5667 3.06605 28.168 4.93246 28.3801C8.73772 28.7924 12.5627 28.9989 16.3906 28.9987C20.2184 28.9989 24.0434 28.7924 27.8487 28.3801L27.8548 28.3796C29.7151 28.1681 31.4022 26.5668 31.6964 24.7272C32.6224 18.7186 32.622 12.6051 31.6952 6.59669ZM21.8219 16.6507L14.667 21.3883C14.4874 21.5071 14.2787 21.5754 14.0631 21.5857C13.8475 21.5961 13.6332 21.5481 13.4429 21.447C13.2526 21.3458 13.0935 21.1953 12.9826 21.0114C12.8717 20.8275 12.8131 20.6172 12.8131 20.4028V10.9277C12.8131 10.7133 12.8717 10.503 12.9826 10.3191C13.0935 10.1352 13.2526 9.98461 13.4429 9.88346C13.6332 9.78231 13.8476 9.73436 14.0632 9.74472C14.2788 9.75509 14.4875 9.82337 14.6671 9.9423L21.8221 14.6799C21.9854 14.788 22.1193 14.9346 22.2119 15.1065C22.3046 15.2784 22.353 15.4703 22.353 15.6653C22.353 15.8602 22.3046 16.0522 22.2119 16.2241C22.1193 16.396 21.9854 16.5425 21.8221 16.6507H21.8219Z" fill="url(#paint0_linear_1688_11251)"/>
</g>
<defs>
<linearGradient id="paint0_linear_1688_11251" x1="0.390625" y1="2.33203" x2="26.6201" y2="33.8074" gradientUnits="userSpaceOnUse">
<stop offset="0.441775" stop-color="#00C7B7"/>
<stop offset="1" stop-color="#088CE0"/>
</linearGradient>
<clipPath id="clip0_1688_11251">
<rect width="32" height="32" fill="white" transform="translate(0.390625)"/>
</clipPath>
</defs>
</svg>
